<?xml version="1.0" encoding="UTF-8" standalone="no"?>
<!DOCTYPE svg PUBLIC "-//W3C//DTD SVG 1.1//EN" "http://www.w3.org/Graphics/SVG/1.1/DTD/svg11.dtd">
<svg width="100%" height="100%" viewBox="0 0 2028 1123" version="1.1" xmlns="http://www.w3.org/2000/svg" xmlns:xlink="http://www.w3.org/1999/xlink" xml:space="preserve" xmlns:serif="http://www.serif.com/" style="fill-rule:evenodd;clip-rule:evenodd;stroke-linejoin:round;stroke-miterlimit:2;">
    <g transform="matrix(1,0,0,1,-226.2125,-238.620833)">
        <g transform="matrix(4.166667,0,0,4.166667,0,0)">
            <g transform="matrix(1,0,0,1,0,191.442)">
                <rect x="54.291" y="93.673" width="5.872" height="41.102" style="fill:rgb(26,59,88);"/>
            </g>
        </g>
        <g transform="matrix(4.166667,0,0,4.166667,0,0)">
            <g transform="matrix(1,0,0,1,79.5973,316.9995)">
                <path d="M0,-22.665C1.448,-24.074 3.161,-25.17 5.138,-25.953C7.114,-26.736 9.257,-27.128 11.567,-27.128C13.798,-27.128 15.892,-26.726 17.85,-25.924C19.807,-25.121 21.568,-23.898 23.134,-22.254L26.951,-25.953C25.072,-28.067 22.791,-29.661 20.11,-30.738C17.429,-31.814 14.503,-32.353 11.332,-32.353C8.2,-32.353 5.313,-31.834 2.671,-30.798C0.029,-29.76 -2.271,-28.292 -4.228,-26.394C-6.186,-24.494 -7.712,-22.273 -8.808,-19.729C-9.904,-17.185 -10.452,-14.386 -10.452,-11.333C-10.452,-8.279 -9.904,-5.48 -8.808,-2.936C-7.712,-0.392 -6.195,1.83 -4.257,3.728C-2.319,5.627 -0.029,7.095 2.613,8.132C5.255,9.169 8.141,9.688 11.273,9.688C14.482,9.688 17.429,9.14 20.11,8.043C22.791,6.948 25.072,5.343 26.951,3.229L23.134,-0.471C21.568,1.213 19.807,2.456 17.85,3.258C15.892,4.061 13.798,4.462 11.567,4.462C9.257,4.462 7.114,4.071 5.138,3.287C3.161,2.505 1.448,1.408 0,-0.001C-1.449,-1.41 -2.575,-3.083 -3.376,-5.02C-4.179,-6.959 -4.58,-9.062 -4.58,-11.333C-4.58,-13.602 -4.179,-15.707 -3.376,-17.644C-2.575,-19.583 -1.449,-21.256 0,-22.665" style="fill:rgb(26,59,88);fill-rule:nonzero;"/>
            </g>
        </g>
        <g transform="matrix(4.166667,0,0,4.166667,0,0)">
            <g transform="matrix(1,0,0,1,147.3263,299.3828)">
                <path d="M0,12.567C-0.803,14.485 -1.918,16.158 -3.347,17.587C-4.776,19.016 -6.459,20.122 -8.396,20.904C-10.334,21.688 -12.439,22.079 -14.708,22.079C-17.019,22.079 -19.142,21.688 -21.08,20.904C-23.017,20.122 -24.71,19.016 -26.158,17.587C-27.607,16.158 -28.733,14.485 -29.535,12.567C-30.337,10.649 -30.738,8.554 -30.738,6.284C-30.738,4.014 -30.337,1.92 -29.535,0.002C-28.733,-1.916 -27.607,-3.589 -26.158,-5.019C-24.71,-6.448 -23.017,-7.553 -21.08,-8.336C-19.142,-9.12 -17.019,-9.511 -14.708,-9.511C-12.439,-9.511 -10.334,-9.12 -8.396,-8.336C-6.459,-7.553 -4.776,-6.448 -3.347,-5.019C-1.918,-3.589 -0.803,-1.916 0,0.002C0.802,1.92 1.204,4.014 1.204,6.284C1.204,8.554 0.802,10.649 0,12.567M0.88,-8.777C-1.097,-10.675 -3.406,-12.143 -6.048,-13.181C-8.69,-14.217 -11.578,-14.737 -14.708,-14.737C-17.879,-14.737 -20.796,-14.208 -23.458,-13.151C-26.12,-12.094 -28.429,-10.617 -30.386,-8.718C-32.344,-6.819 -33.87,-4.598 -34.966,-2.054C-36.062,0.491 -36.61,3.27 -36.61,6.284C-36.61,9.298 -36.062,12.078 -34.966,14.622C-33.87,17.167 -32.344,19.387 -30.386,21.286C-28.429,23.185 -26.11,24.662 -23.428,25.719C-20.747,26.776 -17.841,27.304 -14.708,27.304C-11.578,27.304 -8.69,26.786 -6.048,25.749C-3.406,24.712 -1.097,23.244 0.88,21.344C2.857,19.447 4.383,17.225 5.46,14.68C6.537,12.136 7.075,9.338 7.075,6.284C7.075,3.231 6.537,0.432 5.46,-2.113C4.383,-4.657 2.857,-6.877 0.88,-8.777" style="fill:rgb(26,59,88);fill-rule:nonzero;"/>
            </g>
        </g>
        <g transform="matrix(4.166667,0,0,4.166667,0,0)">
            <g transform="matrix(1,0,0,1,192.8604,295.5917)">
                <path d="M0,20.15L-24.661,-10.476L-29.476,-10.476L-29.476,30.626L-23.604,30.626L-23.604,-0.001L1.057,30.626L5.872,30.626L5.872,-10.476L0,-10.476L0,20.15Z" style="fill:rgb(26,59,88);fill-rule:nonzero;"/>
            </g>
        </g>
        <g transform="matrix(4.166667,0,0,4.166667,0,0)">
            <g transform="matrix(1,0,0,1,0,191.442)">
                <rect x="211.062" y="93.673" width="5.872" height="41.102" style="fill:rgb(26,59,88);"/>
            </g>
        </g>
        <g transform="matrix(4.166667,0,0,4.166667,0,0)">
            <g transform="matrix(1,0,0,1,236.3692,316.9995)">
                <path d="M0,-22.665C1.448,-24.074 3.161,-25.17 5.138,-25.953C7.114,-26.736 9.257,-27.128 11.567,-27.128C13.798,-27.128 15.892,-26.726 17.85,-25.924C19.807,-25.121 21.568,-23.898 23.134,-22.254L26.951,-25.953C25.072,-28.067 22.791,-29.661 20.11,-30.738C17.429,-31.814 14.503,-32.353 11.332,-32.353C8.2,-32.353 5.313,-31.834 2.671,-30.798C0.029,-29.76 -2.271,-28.292 -4.228,-26.394C-6.186,-24.494 -7.712,-22.273 -8.808,-19.729C-9.904,-17.185 -10.452,-14.386 -10.452,-11.333C-10.452,-8.279 -9.904,-5.48 -8.808,-2.936C-7.712,-0.392 -6.195,1.83 -4.257,3.728C-2.319,5.627 -0.029,7.095 2.613,8.132C5.255,9.169 8.141,9.688 11.273,9.688C14.482,9.688 17.429,9.14 20.11,8.043C22.791,6.948 25.072,5.343 26.951,3.229L23.134,-0.471C21.568,1.213 19.807,2.456 17.85,3.258C15.892,4.061 13.798,4.462 11.567,4.462C9.257,4.462 7.114,4.071 5.138,3.287C3.161,2.505 1.448,1.408 0,-0.001C-1.449,-1.41 -2.575,-3.083 -3.376,-5.02C-4.179,-6.959 -4.58,-9.062 -4.58,-11.333C-4.58,-13.602 -4.179,-15.707 -3.376,-17.644C-2.575,-19.583 -1.449,-21.256 0,-22.665" style="fill:rgb(26,59,88);fill-rule:nonzero;"/>
            </g>
        </g>
        <g transform="matrix(4.166667,0,0,4.166667,0,0)">
            <g transform="matrix(1,0,0,1,294.6148,316.9995)">
                <path d="M0,-22.665C1.448,-24.074 3.16,-25.17 5.138,-25.953C7.113,-26.736 9.257,-27.128 11.566,-27.128C13.798,-27.128 15.892,-26.726 17.85,-25.924C19.807,-25.121 21.567,-23.898 23.134,-22.254L26.95,-25.953C25.071,-28.067 22.791,-29.661 20.11,-30.738C17.429,-31.814 14.503,-32.353 11.332,-32.353C8.2,-32.353 5.313,-31.834 2.671,-30.798C0.029,-29.76 -2.271,-28.292 -4.228,-26.394C-6.186,-24.494 -7.712,-22.273 -8.808,-19.729C-9.904,-17.185 -10.452,-14.386 -10.452,-11.333C-10.452,-8.279 -9.904,-5.48 -8.808,-2.936C-7.712,-0.392 -6.195,1.83 -4.257,3.728C-2.319,5.627 -0.029,7.095 2.612,8.132C5.255,9.169 8.141,9.688 11.273,9.688C14.482,9.688 17.429,9.14 20.11,8.043C22.791,6.948 25.071,5.343 26.95,3.229L23.134,-0.471C21.567,1.213 19.807,2.456 17.85,3.258C15.892,4.061 13.798,4.462 11.566,4.462C9.257,4.462 7.113,4.071 5.138,3.287C3.16,2.505 1.448,1.408 0,-0.001C-1.449,-1.41 -2.575,-3.083 -3.376,-5.02C-4.179,-6.959 -4.58,-9.062 -4.58,-11.333C-4.58,-13.602 -4.179,-15.707 -3.376,-17.644C-2.575,-19.583 -1.449,-21.256 0,-22.665" style="fill:rgb(26,59,88);fill-rule:nonzero;"/>
            </g>
        </g>
        <g transform="matrix(4.166667,0,0,4.166667,0,0)">
            <g transform="matrix(1,0,0,1,345.815,302.6133)">
                <path d="M0,6.107L-9.982,6.107L-9.982,-12.389L0,-12.389C3.758,-12.389 6.605,-11.586 8.543,-9.982C10.48,-8.376 11.449,-6.107 11.449,-3.17C11.449,-0.235 10.48,2.046 8.543,3.669C6.605,5.295 3.758,6.107 0,6.107M9.395,9.395C11.938,8.26 13.896,6.626 15.266,4.492C16.636,2.359 17.321,-0.196 17.321,-3.17C17.321,-6.145 16.636,-8.709 15.266,-10.863C13.896,-13.015 11.938,-14.659 9.395,-15.794C6.85,-16.929 3.777,-17.497 0.176,-17.497L-15.854,-17.497L-15.854,23.604L-9.982,23.604L-9.982,11.097L0.176,11.097C1.079,11.097 1.949,11.061 2.786,10.99L11.626,23.604L18.025,23.604L8.256,9.818C8.638,9.68 9.034,9.556 9.395,9.395" style="fill:rgb(26,59,88);fill-rule:nonzero;"/>
            </g>
        </g>
        <g transform="matrix(4.166667,0,0,4.166667,0,0)">
            <g transform="matrix(1,0,0,1,401.36,303.5525)">
                <path d="M0,4.698C0,9.277 -1.009,12.625 -3.024,14.738C-5.041,16.852 -7.907,17.909 -11.626,17.909C-15.306,17.909 -18.153,16.852 -20.169,14.738C-22.186,12.625 -23.193,9.277 -23.193,4.698L-23.193,-18.437L-29.064,-18.437L-29.064,4.932C-29.064,10.883 -27.519,15.404 -24.426,18.496C-21.334,21.589 -17.087,23.135 -11.685,23.135C-6.244,23.135 -1.987,21.589 1.086,18.496C4.158,15.404 5.695,10.883 5.695,4.932L5.695,-18.437L0,-18.437L0,4.698Z" style="fill:rgb(26,59,88);fill-rule:nonzero;"/>
            </g>
        </g>
        <g transform="matrix(4.166667,0,0,4.166667,0,0)">
            <g transform="matrix(1,0,0,1,0,191.442)">
                <rect x="419.091" y="93.673" width="5.871" height="41.102" style="fill:rgb(26,59,88);"/>
            </g>
        </g>
        <g transform="matrix(4.166667,0,0,4.166667,0,0)">
            <g transform="matrix(1,0,0,1,460.2809,304.9032)">
                <path d="M0,1.527C-1.469,0.705 -3.093,0.04 -4.874,-0.47C-6.655,-0.978 -8.426,-1.439 -10.188,-1.85C-11.949,-2.26 -13.563,-2.72 -15.032,-3.229C-16.5,-3.738 -17.694,-4.423 -18.613,-5.285C-19.534,-6.145 -19.993,-7.3 -19.993,-8.748C-19.993,-9.961 -19.651,-11.058 -18.966,-12.036C-18.281,-13.015 -17.195,-13.798 -15.707,-14.385C-14.22,-14.973 -12.321,-15.266 -10.012,-15.266C-8.172,-15.266 -6.273,-15.002 -4.316,-14.473C-2.359,-13.945 -0.5,-13.094 1.262,-11.919L3.199,-16.617C1.477,-17.791 -0.559,-18.691 -2.907,-19.318C-5.256,-19.944 -7.624,-20.257 -10.012,-20.257C-13.613,-20.257 -16.578,-19.718 -18.907,-18.642C-21.236,-17.565 -22.959,-16.137 -24.074,-14.356C-25.189,-12.575 -25.747,-10.627 -25.747,-8.514C-25.747,-6.321 -25.298,-4.531 -24.397,-3.141C-23.497,-1.751 -22.312,-0.646 -20.845,0.176C-19.377,0.999 -17.753,1.673 -15.972,2.202C-14.19,2.73 -12.419,3.191 -10.657,3.582C-8.896,3.973 -7.281,4.433 -5.813,4.962C-4.346,5.49 -3.151,6.185 -2.231,7.047C-1.312,7.908 -0.852,9.043 -0.852,10.452C-0.852,11.666 -1.204,12.752 -1.909,13.711C-2.613,14.67 -3.71,15.423 -5.197,15.971C-6.685,16.519 -8.622,16.793 -11.01,16.793C-13.633,16.793 -16.157,16.343 -18.584,15.442C-21.012,14.543 -23.008,13.408 -24.573,12.037L-26.746,16.617C-25.102,18.143 -22.852,19.386 -19.993,20.345C-17.137,21.305 -14.142,21.784 -11.01,21.784C-7.409,21.784 -4.425,21.246 -2.056,20.17C0.312,19.093 2.063,17.665 3.199,15.882C4.335,14.102 4.902,12.174 4.902,10.099C4.902,7.947 4.452,6.185 3.552,4.815C2.651,3.445 1.468,2.348 0,1.527" style="fill:rgb(26,59,88);fill-rule:nonzero;"/>
            </g>
        </g>
        <g transform="matrix(4.166667,0,0,4.166667,0,0)">
            <g transform="matrix(1,0,0,1,479.6266,303.4934)">
                <path d="M0,4.346L20.609,4.346L20.609,-0.645L0,-0.645L0,-13.269L23.134,-13.269L23.134,-18.378L-5.872,-18.378L-5.872,22.724L23.956,22.724L23.956,17.616L0,17.616L0,4.346Z" style="fill:rgb(26,59,88);fill-rule:nonzero;"/>
            </g>
        </g>
        <g transform="matrix(4.166667,0,0,4.166667,0,0)">
            <g transform="matrix(1,0,0,1,539.6344,301.6153)">
                <path d="M0,8.103C-0.9,6.733 -2.084,5.636 -3.552,4.815C-5.021,3.993 -6.645,3.328 -8.426,2.818C-10.207,2.31 -11.978,1.849 -13.739,1.438C-15.501,1.028 -17.115,0.568 -18.584,0.059C-20.052,-0.45 -21.246,-1.135 -22.165,-1.997C-23.086,-2.857 -23.545,-4.012 -23.545,-5.46C-23.545,-6.673 -23.203,-7.77 -22.518,-8.749C-21.833,-9.727 -20.747,-10.51 -19.259,-11.097C-17.771,-11.685 -15.873,-11.978 -13.563,-11.978C-11.724,-11.978 -9.825,-11.714 -7.868,-11.185C-5.911,-10.657 -4.052,-9.806 -2.29,-8.631L-0.353,-13.329C-2.075,-14.503 -4.11,-15.403 -6.459,-16.03C-8.808,-16.656 -11.176,-16.969 -13.563,-16.969C-17.165,-16.969 -20.13,-16.43 -22.459,-15.354C-24.788,-14.277 -26.511,-12.849 -27.626,-11.068C-28.741,-9.287 -29.299,-7.339 -29.299,-5.226C-29.299,-3.033 -28.85,-1.243 -27.949,0.147C-27.049,1.537 -25.864,2.642 -24.396,3.464C-22.929,4.287 -21.305,4.961 -19.523,5.49C-17.742,6.018 -15.971,6.479 -14.209,6.87C-12.447,7.261 -10.833,7.721 -9.365,8.249C-7.897,8.778 -6.703,9.473 -5.783,10.334C-4.864,11.196 -4.403,12.331 -4.403,13.74C-4.403,14.954 -4.756,16.04 -5.461,16.999C-6.165,17.957 -7.262,18.711 -8.749,19.259C-10.236,19.807 -12.174,20.081 -14.562,20.081C-17.185,20.081 -19.709,19.631 -22.136,18.73C-24.563,17.831 -26.56,16.696 -28.125,15.325L-30.298,19.905C-28.653,21.431 -26.403,22.674 -23.545,23.633C-20.688,24.593 -17.693,25.072 -14.562,25.072C-10.961,25.072 -7.977,24.534 -5.607,23.457C-3.239,22.381 -1.488,20.953 -0.353,19.17C0.783,17.39 1.351,15.462 1.351,13.387C1.351,11.235 0.9,9.473 0,8.103" style="fill:rgb(26,59,88);fill-rule:nonzero;"/>
            </g>
        </g>
        <g transform="matrix(4.166667,0,0,4.166667,0,0)">
            <g transform="matrix(216.838577,101.113487,101.113487,-216.838577,169.048708,159.054338)">
                <path d="M0.29,-0.036C0.159,-0.114 0.114,-0.239 0.114,-0.239C0.114,-0.239 0.197,-0.111 0.382,-0.051C0.568,0.009 0.701,-0.021 0.871,0.044C1.042,0.11 1.055,0.239 1.055,0.239C1.019,0.171 0.89,0.111 0.731,0.087C0.594,0.066 0.462,0.047 0.344,-0.008C0.325,-0.017 0.307,-0.026 0.29,-0.036Z" style="fill:url(#_Linear1);fill-rule:nonzero;"/>
            </g>
        </g>
        <g transform="matrix(4.166667,0,0,4.166667,0,0)">
            <g transform="matrix(218.796692,102.026573,102.026573,-218.796692,163.417761,169.862366)">
                <path d="M0.223,-0.127C0.286,-0.092 0.368,-0.061 0.479,-0.048C0.589,-0.034 0.736,-0.033 0.848,0.015C0.96,0.063 0.988,0.127 0.988,0.127C0.959,0.103 0.91,0.066 0.8,0.036C0.69,0.006 0.54,0.01 0.414,-0.025C0.383,-0.034 0.356,-0.045 0.332,-0.056C0.26,-0.089 0.223,-0.127 0.223,-0.127Z" style="fill:url(#_Linear2);fill-rule:nonzero;"/>
            </g>
        </g>
        <g transform="matrix(4.166667,0,0,4.166667,0,0)">
            <g transform="matrix(203.179001,94.743919,94.743919,-203.179001,204.296981,97.607638)">
                <path d="M0.294,0.335L0.294,0.335L0.294,0.336L0.294,0.335ZM0.356,-0.081L0.36,-0.11C0.361,-0.116 0.361,-0.123 0.36,-0.129C0.355,-0.159 0.336,-0.185 0.307,-0.199C0.275,-0.214 0.239,-0.21 0.212,-0.191C0.203,-0.184 0.195,-0.174 0.19,-0.164L0.178,-0.141L0.176,-0.14L0.04,-0.134L0.251,-0.336C0.251,-0.336 0.359,-0.249 0.543,-0.215C0.727,-0.18 0.78,-0.181 0.843,-0.158L0.817,0.228L0.734,0.12L0.733,0.118L0.743,0.094C0.748,0.083 0.75,0.071 0.749,0.06C0.746,0.027 0.727,-0.003 0.695,-0.018C0.665,-0.032 0.633,-0.029 0.607,-0.014C0.601,-0.011 0.596,-0.007 0.592,-0.002L0.573,0.02L0.294,0.335L0.356,-0.081Z" style="fill:url(#_Linear3);fill-rule:nonzero;"/>
            </g>
        </g>
        <g transform="matrix(4.166667,0,0,4.166667,0,0)">
            <g transform="matrix(139.685578,182.228516,182.228516,-139.685578,211.319063,94.80894)">
                <path d="M0.298,-0.072C0.298,-0.072 0.324,-0.059 0.334,-0.029C0.344,0.002 0.321,0.033 0.298,0.059L0.195,0.039L0.298,-0.072Z" style="fill:url(#_Linear4);fill-rule:nonzero;"/>
            </g>
        </g>
        <g transform="matrix(4.166667,0,0,4.166667,0,0)">
            <g transform="matrix(-137.305783,179.131445,179.131445,137.305783,431.940976,25.99267)">
                <path d="M0.685,-0.058C0.709,-0.031 0.732,0.001 0.722,0.032C0.712,0.063 0.685,0.075 0.685,0.075L0.58,-0.037L0.685,-0.058Z" style="fill:url(#_Linear5);fill-rule:nonzero;"/>
            </g>
        </g>
    </g>
    <defs>
        <linearGradient id="_Linear1" x1="0" y1="0" x2="1" y2="0" gradientUnits="userSpaceOnUse" gradientTransform="matrix(1,0,0,-1,0,0.000002)"><stop offset="0" style="stop-color:rgb(18,47,73);stop-opacity:1"/><stop offset="0.25" style="stop-color:rgb(26,59,88);stop-opacity:1"/><stop offset="0.47" style="stop-color:rgb(63,112,144);stop-opacity:1"/><stop offset="0.75" style="stop-color:rgb(28,59,88);stop-opacity:1"/><stop offset="1" style="stop-color:rgb(18,47,73);stop-opacity:1"/></linearGradient>
        <linearGradient id="_Linear2" x1="0" y1="0" x2="1" y2="0" gradientUnits="userSpaceOnUse" gradientTransform="matrix(1,0,0,-1,0,0.000001)"><stop offset="0" style="stop-color:rgb(18,47,73);stop-opacity:1"/><stop offset="0.25" style="stop-color:rgb(26,59,88);stop-opacity:1"/><stop offset="0.47" style="stop-color:rgb(63,112,144);stop-opacity:1"/><stop offset="0.75" style="stop-color:rgb(28,59,88);stop-opacity:1"/><stop offset="1" style="stop-color:rgb(18,47,73);stop-opacity:1"/></linearGradient>
        <linearGradient id="_Linear3" x1="0" y1="0" x2="1" y2="0" gradientUnits="userSpaceOnUse" gradientTransform="matrix(1,0,0,-1,0,-0.000003)"><stop offset="0" style="stop-color:rgb(199,178,122);stop-opacity:1"/><stop offset="0.47" style="stop-color:rgb(238,227,193);stop-opacity:1"/><stop offset="1" style="stop-color:rgb(199,178,122);stop-opacity:1"/></linearGradient>
        <linearGradient id="_Linear4" x1="0" y1="0" x2="1" y2="0" gradientUnits="userSpaceOnUse" gradientTransform="matrix(0.886782,0.462188,0.462188,-0.886782,0.031485,-0.128529)"><stop offset="0" style="stop-color:rgb(199,178,122);stop-opacity:1"/><stop offset="0.47" style="stop-color:rgb(238,227,193);stop-opacity:1"/><stop offset="1" style="stop-color:rgb(199,178,122);stop-opacity:1"/></linearGradient>
        <linearGradient id="_Linear5" x1="0" y1="0" x2="1" y2="0" gradientUnits="userSpaceOnUse" gradientTransform="matrix(-0.215936,0.976407,0.976407,0.215936,0.791212,-0.63535)"><stop offset="0" style="stop-color:rgb(199,178,122);stop-opacity:1"/><stop offset="0.47" style="stop-color:rgb(238,227,193);stop-opacity:1"/><stop offset="1" style="stop-color:rgb(199,178,122);stop-opacity:1"/></linearGradient>
    </defs>
</svg>
